<svg width="183" height="59" viewBox="0 0 183 59" fill="none" xmlns="http://www.w3.org/2000/svg">
<rect width="183" height="59" fill="#D9D9D9"/>
<path d="M64.4323 36V22H66.9923V34H73.1923V36H64.4323ZM80.7384 36.24C79.3384 36.24 78.1117 35.9333 77.0584 35.32C76.0184 34.7067 75.1984 33.86 74.5984 32.78C74.0117 31.6867 73.7184 30.4267 73.7184 29C73.7184 27.5733 74.0117 26.32 74.5984 25.24C75.1984 24.1467 76.0184 23.2933 77.0584 22.68C78.1117 22.0667 79.3384 21.76 80.7384 21.76C82.125 21.76 83.345 22.0667 84.3984 22.68C85.4517 23.2933 86.2717 24.1467 86.8584 25.24C87.445 26.32 87.7384 27.5733 87.7384 29C87.7384 30.4267 87.445 31.6867 86.8584 32.78C86.2717 33.86 85.4517 34.7067 84.3984 35.32C83.345 35.9333 82.125 36.24 80.7384 36.24ZM80.7384 33.94C82.0717 33.94 83.1317 33.5 83.9184 32.62C84.7184 31.74 85.1184 30.5333 85.1184 29C85.1184 27.4667 84.7184 26.26 83.9184 25.38C83.1317 24.5 82.0717 24.06 80.7384 24.06C79.405 24.06 78.3384 24.5 77.5384 25.38C76.7384 26.26 76.3384 27.4667 76.3384 29C76.3384 30.5333 76.7384 31.74 77.5384 32.62C78.3384 33.5 79.405 33.94 80.7384 33.94ZM96.1187 36.24C94.7987 36.24 93.6453 35.94 92.6587 35.34C91.672 34.74 90.9053 33.9067 90.3587 32.84C89.812 31.76 89.5387 30.5067 89.5387 29.08C89.5387 27.64 89.8187 26.3733 90.3787 25.28C90.952 24.1733 91.7587 23.3133 92.7987 22.7C93.852 22.0733 95.0987 21.76 96.5387 21.76C98.1787 21.76 99.5387 22.1533 100.619 22.94C101.699 23.7267 102.399 24.8133 102.719 26.2H99.8587C99.6453 25.5467 99.2587 25.04 98.6987 24.68C98.1387 24.3067 97.4187 24.12 96.5387 24.12C95.1387 24.12 94.0587 24.5667 93.2987 25.46C92.5387 26.34 92.1587 27.5533 92.1587 29.1C92.1587 30.6467 92.532 31.8467 93.2787 32.7C94.0387 33.54 95.0653 33.96 96.3587 33.96C97.6253 33.96 98.5787 33.62 99.2187 32.94C99.872 32.2467 100.265 31.34 100.399 30.22H96.8587V28.3H102.979V36H100.619L100.419 34.16C99.9653 34.8267 99.3987 35.34 98.7187 35.7C98.0387 36.06 97.172 36.24 96.1187 36.24ZM112.027 36.24C110.627 36.24 109.401 35.9333 108.347 35.32C107.307 34.7067 106.487 33.86 105.887 32.78C105.301 31.6867 105.007 30.4267 105.007 29C105.007 27.5733 105.301 26.32 105.887 25.24C106.487 24.1467 107.307 23.2933 108.347 22.68C109.401 22.0667 110.627 21.76 112.027 21.76C113.414 21.76 114.634 22.0667 115.687 22.68C116.741 23.2933 117.561 24.1467 118.147 25.24C118.734 26.32 119.027 27.5733 119.027 29C119.027 30.4267 118.734 31.6867 118.147 32.78C117.561 33.86 116.741 34.7067 115.687 35.32C114.634 35.9333 113.414 36.24 112.027 36.24ZM112.027 33.94C113.361 33.94 114.421 33.5 115.207 32.62C116.007 31.74 116.407 30.5333 116.407 29C116.407 27.4667 116.007 26.26 115.207 25.38C114.421 24.5 113.361 24.06 112.027 24.06C110.694 24.06 109.627 24.5 108.827 25.38C108.027 26.26 107.627 27.4667 107.627 29C107.627 30.5333 108.027 31.74 108.827 32.62C109.627 33.5 110.694 33.94 112.027 33.94Z" fill="black"/>
</svg>
